<?xml version="1.0" standalone="no"?>
<!DOCTYPE svg PUBLIC "-//W3C//DTD SVG 20010904//EN"
 "http://www.w3.org/TR/2001/REC-SVG-20010904/DTD/svg10.dtd">
<svg version="1.0" xmlns="http://www.w3.org/2000/svg"
 width="2000.000000pt" height="2000.000000pt" viewBox="0 0 2000.000000 2000.000000"
 preserveAspectRatio="xMidYMid meet">

<g transform="translate(0.000000,2000.000000) scale(0.100000,-0.100000)"
fill="#000000" stroke="none">
<path d="M5095 15209 c-220 -32 -445 -176 -521 -334 -26 -54 -28 -70 -28 -165
0 -98 3 -114 47 -250 27 -80 56 -170 67 -201 l18 -57 -39 5 c-32 5 -45 1 -64
-17 -37 -35 -49 -82 -35 -138 24 -96 132 -239 204 -268 41 -17 45 -23 81 -109
33 -80 39 -110 56 -264 18 -170 16 -201 -11 -201 -5 0 -88 -38 -187 -84 -98
-46 -268 -123 -378 -171 -272 -118 -418 -191 -447 -223 -17 -20 -32 -60 -52
-147 -65 -279 -214 -818 -274 -995 -29 -85 -128 -322 -163 -392 -10 -20 -16
-44 -13 -52 3 -9 30 -30 60 -46 29 -17 56 -35 59 -40 12 -20 -27 -311 -55
-410 -63 -220 -93 -448 -94 -708 l-1 -202 -57 -46 -58 -46 0 29 c1 15 7 78 14
138 15 127 15 178 1 185 -6 3 -13 -22 -17 -59 -4 -34 -9 -68 -11 -74 -2 -6
-18 17 -37 51 -18 34 -39 62 -46 62 -21 0 -18 -11 32 -99 46 -81 46 -82 39
-149 -16 -161 -59 -335 -125 -512 -48 -130 -142 -350 -149 -349 -3 0 -35 50
-71 110 -69 118 -217 320 -237 327 -26 8 -12 -27 36 -86 61 -75 144 -200 209
-314 l50 -86 -25 -69 c-106 -292 -111 -418 -33 -878 54 -320 64 -418 57 -568
-4 -70 -9 -132 -12 -137 -3 -5 -32 43 -64 106 -68 132 -230 383 -248 384 -7 0
-13 -4 -13 -10 0 -5 41 -72 91 -147 50 -76 121 -198 157 -272 l65 -133 -13
-72 c-7 -39 -41 -174 -76 -301 -110 -396 -116 -470 -59 -724 19 -84 37 -156
40 -159 3 -3 9 -1 14 4 6 5 -2 57 -20 129 -15 66 -29 133 -29 149 0 39 113
269 185 376 32 47 86 120 121 162 45 53 61 79 52 84 -30 19 -209 -224 -303
-411 l-65 -130 0 75 c0 86 26 207 98 460 54 191 86 336 102 473 10 82 15 96
67 180 70 115 170 249 262 350 39 43 69 82 66 87 -10 16 -32 0 -92 -68 -104
-119 -142 -168 -216 -280 l-73 -110 -12 136 c-7 74 -30 239 -52 366 -48 284
-58 376 -54 489 5 146 -7 130 206 287 133 99 187 145 180 152 -12 12 -13 11
-210 -135 -73 -55 -136 -96 -139 -93 -10 10 58 202 143 407 104 249 147 373
178 508 14 63 29 117 34 120 4 3 34 26 65 50 32 24 59 42 62 40 2 -2 15 -92
29 -199 14 -107 42 -314 62 -460 39 -294 45 -423 25 -551 -12 -72 -12 -89 0
-110 16 -29 203 -199 258 -234 41 -26 160 -41 192 -24 27 14 23 51 -10 92 -29
37 -91 227 -91 277 0 14 9 43 19 65 l18 40 17 -75 c25 -106 36 -130 63 -141
28 -10 57 1 67 27 9 23 7 184 -3 290 -11 106 -23 135 -122 279 l-69 100 45
315 c58 411 75 587 75 789 1 227 13 338 58 526 l39 160 79 -3 c43 -2 82 -7 85
-10 3 -4 -11 -155 -32 -337 -20 -181 -67 -595 -103 -920 -37 -324 -69 -609
-72 -633 -6 -41 -5 -42 30 -57 44 -19 43 11 10 -425 -3 -47 -8 -415 -9 -818
-1 -403 -6 -792 -9 -865 -30 -570 -67 -1068 -111 -1466 -35 -315 -32 -509 15
-946 5 -49 12 -133 15 -185 l5 -96 -51 -85 c-28 -47 -78 -121 -111 -165 -116
-152 -136 -236 -75 -316 20 -27 55 -54 92 -73 54 -28 66 -30 164 -30 95 0 112
3 167 28 34 16 82 49 107 75 51 52 147 207 229 368 33 64 61 107 75 113 15 7
49 64 107 180 87 177 137 310 156 421 15 85 13 295 -4 507 -9 106 -11 186 -6
210 12 50 80 532 129 913 102 775 146 1166 161 1425 6 99 20 254 31 345 20
162 64 418 73 427 7 7 13 -21 50 -222 76 -416 70 -247 67 -1870 -1 -952 -5
-1481 -12 -1520 -6 -33 -24 -93 -40 -133 -38 -97 -38 -146 5 -263 18 -52 53
-159 76 -239 48 -162 50 -165 279 -444 117 -143 172 -189 282 -240 202 -93
429 -86 503 16 65 90 -30 280 -256 514 l-89 92 69 173 c80 199 113 301 137
414 19 90 15 162 -15 310 -20 99 -36 229 -45 375 -9 127 14 875 60 1955 3 72
17 393 30 715 14 322 26 612 28 645 l2 60 47 3 46 3 -5 -181 c-6 -164 -4 -182
12 -200 43 -48 88 -14 109 82 22 96 31 112 46 73 22 -59 22 -84 -5 -176 -28
-100 -54 -158 -79 -178 -23 -20 -20 -58 7 -76 30 -19 160 -12 196 12 63 40
237 188 249 211 12 21 11 42 -4 140 -21 138 -16 192 51 677 24 176 52 391 61
478 10 86 21 157 26 157 4 0 8 -255 8 -567 1 -736 17 -2814 23 -2819 2 -3 63
-7 136 -11 l131 -6 1 -66 c4 -277 -8 -381 -70 -626 -59 -227 -66 -283 -65
-530 1 -173 8 -284 33 -520 30 -289 50 -655 51 -931 0 -139 2 -145 50 -158 16
-4 32 -21 45 -49 19 -39 31 -47 150 -107 72 -36 179 -100 238 -142 167 -119
289 -157 559 -177 125 -9 279 -2 343 17 57 17 116 53 127 77 18 40 1 72 -62
122 -33 25 -60 47 -60 47 0 1 39 -2 88 -6 110 -8 421 7 487 25 103 28 145 66
145 130 0 53 -37 77 -201 131 -94 32 -201 89 -300 160 l-45 33 -25 139 c-21
120 -24 170 -24 359 1 292 22 425 119 751 49 162 60 311 50 689 -12 490 -10
537 20 718 15 87 30 165 33 173 5 13 51 15 315 14 170 -1 312 1 315 4 7 7 5
201 -12 786 -8 283 -17 607 -20 720 -24 902 -36 1346 -38 1408 l-2 72 35 -7
c19 -5 73 -8 120 -8 75 0 91 4 139 30 65 36 123 105 146 176 15 44 17 73 11
178 -18 325 -156 1265 -242 1655 -52 234 -113 339 -251 432 -32 21 -80 58
-107 82 -69 61 -222 160 -346 226 -100 53 -106 58 -134 112 -29 55 -102 125
-146 139 -35 11 -26 59 14 85 55 33 142 134 175 202 34 70 61 178 61 250 0 32
9 66 29 105 39 77 46 142 27 226 -14 60 -14 73 -1 125 38 144 36 423 -5 553
-64 206 -264 378 -492 424 -160 31 -379 13 -547 -45 -267 -93 -404 -258 -436
-526 -6 -50 -8 -52 -58 -75 -98 -46 -190 -164 -216 -280 -45 -193 57 -403 236
-487 50 -23 72 -27 163 -28 75 -1 114 -6 135 -18 17 -9 42 -16 57 -16 24 0 29
-7 52 -77 34 -102 73 -167 142 -242 31 -34 55 -63 53 -65 -2 -1 -26 -11 -54
-21 -74 -27 -138 -93 -188 -193 l-42 -85 -268 -137 c-243 -125 -280 -140 -384
-165 -141 -33 -292 -80 -316 -97 -15 -12 -49 -129 -84 -293 -8 -37 -12 -28
-61 165 -29 113 -80 309 -113 435 -33 127 -65 246 -70 266 -9 36 -11 37 -251
144 -230 103 -621 295 -643 316 -6 6 -8 52 -6 112 l3 102 58 62 c83 89 95 129
87 304 l-7 138 37 53 c51 75 100 182 113 244 14 66 0 125 -37 153 -32 26 -59
26 -99 2 l-31 -19 -6 187 c-11 350 -70 570 -175 648 -105 79 -364 121 -567 92z
m423 -437 c78 -30 146 -77 177 -122 27 -39 27 -41 15 -105 -7 -36 -15 -64 -19
-62 -115 62 -201 80 -263 54 -48 -20 -71 -57 -71 -115 0 -26 -5 -50 -11 -54
-7 -5 9 -68 52 -195 34 -104 62 -195 62 -204 0 -12 -12 -14 -63 -11 -35 2 -81
-1 -102 -7 -32 -9 -41 -8 -48 4 -14 26 -40 18 -35 -10 4 -17 -2 -31 -20 -47
-13 -13 -36 -47 -49 -76 -56 -115 -122 -122 -220 -20 -47 49 -141 190 -149
225 -8 31 21 148 49 198 18 32 29 41 55 43 23 2 36 11 47 31 23 45 123 131
153 132 45 2 66 -2 90 -17 41 -27 84 5 62 46 -5 10 -30 26 -55 35 -63 24 -134
16 -188 -21 l-41 -29 -57 57 c-68 67 -75 85 -55 132 40 95 270 168 511 162 92
-2 132 -8 173 -24z m51 -317 c23 -8 62 -28 85 -46 37 -26 47 -29 65 -19 19 10
23 8 36 -23 32 -76 58 -360 44 -467 -8 -52 -15 -71 -41 -97 -52 -54 -73 -47
-173 54 -60 61 -85 93 -85 111 0 13 -27 105 -61 204 -33 99 -59 181 -57 182
33 14 43 28 46 57 5 59 55 75 141 44z m391 -202 c33 -42 21 -105 -41 -230 -28
-57 -55 -103 -59 -103 -4 0 -10 66 -13 148 l-5 147 31 33 c38 39 59 40 87 5z
m-1274 -128 c19 -25 34 -70 55 -166 17 -73 28 -137 26 -142 -5 -17 -94 71
-137 137 -66 100 -75 161 -30 206 25 25 47 16 86 -35z m4153 -91 c21 -54 48
-123 60 -152 l21 -52 -68 5 c-80 6 -155 -16 -185 -57 -28 -38 -31 -130 -9
-307 15 -112 17 -159 9 -172 -17 -28 -60 -48 -90 -42 -36 7 -38 -23 -2 -37 33
-13 84 8 113 45 26 33 27 59 7 220 -18 142 -19 225 -4 259 16 34 62 51 141 51
92 0 112 -17 160 -135 l38 -93 -6 -201 c-7 -225 -20 -301 -65 -387 -58 -108
-181 -212 -308 -260 -73 -27 -181 -23 -258 11 -117 50 -251 173 -308 280 -44
84 -170 522 -154 533 2 2 53 25 113 52 60 27 161 78 224 113 119 66 135 70
222 50 7 -2 16 5 18 14 2 12 -5 19 -25 24 -15 4 -31 9 -35 11 -4 2 23 27 60
55 101 77 195 163 243 223 24 30 45 53 46 51 2 -2 21 -48 42 -102z m-3265
-270 c34 -33 17 -54 -68 -84 -117 -40 -264 -38 -313 4 -23 20 -24 25 -13 45
11 21 16 22 58 15 77 -14 182 -8 242 14 68 25 75 26 94 6z m3515 -284 c1 -37
-17 -115 -25 -107 -2 2 -1 44 2 93 7 86 22 95 23 14z m-1244 50 c3 -5 15 -10
25 -10 21 0 27 -17 74 -202 l24 -98 -25 0 c-34 0 -74 46 -118 132 -37 75 -45
132 -23 168 14 22 33 26 43 10z m-2786 -129 c88 -60 233 -127 316 -147 90 -21
148 -14 236 29 l69 33 0 -65 c0 -121 -21 -305 -41 -365 -56 -166 -228 -426
-282 -426 -29 0 -117 93 -209 222 -163 227 -182 279 -214 583 -13 127 -24 236
-24 244 0 7 19 -4 43 -26 23 -21 71 -58 106 -82z m-147 -302 c12 -130 69 -255
199 -434 181 -251 245 -291 324 -204 45 50 147 204 186 281 43 85 76 194 84
276 l7 72 58 -31 c56 -30 57 -31 64 -82 9 -82 7 -344 -4 -437 -26 -210 -103
-552 -227 -1012 -37 -137 -71 -248 -75 -248 -9 0 -264 507 -368 730 -38 82
-105 243 -149 357 -76 200 -257 741 -250 747 14 13 126 64 134 62 6 -1 13 -36
17 -77z m-135 -181 c161 -510 267 -772 523 -1283 107 -214 196 -393 198 -397
2 -4 -39 -9 -90 -10 l-93 -3 2 -80 c11 -361 27 -631 37 -637 16 -11 408 -9
425 1 12 7 12 60 2 342 -7 184 -14 344 -17 357 -4 21 -9 22 -99 22 -84 0 -95
2 -95 18 0 9 21 89 46 177 76 269 163 619 206 830 41 200 41 200 46 473 3 202
7 272 15 268 7 -2 102 -47 212 -99 110 -52 261 -120 335 -152 74 -32 138 -61
142 -64 4 -3 16 -44 26 -91 11 -47 42 -168 70 -270 28 -102 77 -291 110 -420
l60 -235 -48 -290 c-26 -159 -56 -344 -66 -410 l-19 -120 -45 -8 c-56 -10
-180 1 -185 17 -1 6 -17 218 -34 471 -43 623 -51 708 -62 720 -29 29 -28 -29
11 -571 44 -609 48 -755 30 -1289 -21 -608 -50 -1348 -53 -1351 -5 -4 -354
-35 -517 -46 -102 -7 -372 -13 -600 -13 -342 0 -441 3 -560 18 -228 29 -411
66 -602 124 l-88 26 5 36 c3 20 19 158 36 306 16 149 63 569 104 935 l74 665
12 561 c7 308 9 573 5 588 -4 16 -12 26 -20 24 -12 -2 -15 -70 -20 -373 -3
-203 -9 -463 -12 -577 l-7 -208 -36 0 c-52 0 -236 28 -305 45 -98 25 -306 125
-425 204 -11 7 2 45 67 197 44 104 98 248 121 319 53 171 200 712 242 893 l34
144 65 38 c36 21 213 104 393 184 180 80 340 152 355 160 15 8 29 12 31 10 2
-2 29 -81 58 -176z m3530 -187 c125 -77 268 -91 384 -38 l57 25 -5 -81 c-9
-164 -65 -510 -125 -769 -19 -86 -20 -88 -49 -88 -27 0 -33 6 -55 56 -13 30
-49 127 -79 215 -30 87 -77 214 -104 281 -61 155 -101 284 -101 330 0 48 11
98 21 98 5 0 30 -13 56 -29z m-114 -29 c-7 -64 20 -169 92 -358 109 -283 153
-419 161 -492 l7 -71 -134 -3 -134 -3 -3 -27 c-3 -28 -4 -28 -73 -28 -38 0
-69 2 -69 6 0 3 18 48 41 101 27 63 37 99 31 105 -7 7 -42 3 -102 -11 -50 -12
-97 -21 -104 -21 -9 0 -4 74 21 297 31 284 34 300 66 367 43 89 77 131 136
161 66 35 71 33 64 -23z m626 -67 c72 -37 103 -92 225 -396 64 -160 116 -296
116 -303 0 -8 -33 -16 -96 -24 -54 -6 -101 -15 -106 -20 -12 -12 2 -26 121
-111 56 -40 101 -78 101 -84 0 -7 -26 -110 -57 -230 l-58 -217 -5 232 -5 233
-147 3 -148 3 0 67 c0 37 -5 162 -11 277 -11 197 -10 219 10 351 11 78 21 162
21 188 0 25 2 46 5 46 4 0 19 -7 34 -15z m-905 -212 c-17 -94 -62 -559 -55
-566 5 -5 49 0 102 12 50 12 94 19 96 17 3 -2 -11 -39 -29 -83 l-34 -78 -134
-5 -135 -5 -3 -517 c-2 -533 -2 -533 -39 -510 -10 6 -13 138 -15 583 -3 502
-5 574 -18 574 -13 0 -15 -70 -15 -568 0 -413 -3 -567 -11 -567 -6 0 -29 6
-51 14 -86 30 -209 49 -315 47 -134 -2 -197 -13 -273 -51 -68 -33 -155 -108
-155 -133 0 -27 19 -20 74 30 64 58 153 100 230 109 l60 7 -61 -59 c-80 -79
-203 -271 -203 -319 0 -35 32 -11 61 48 75 148 177 270 257 304 73 31 269 10
370 -41 15 -7 186 -53 381 -101 l354 -89 -8 -395 c-4 -218 -10 -399 -13 -402
-15 -13 -965 85 -1072 111 -104 24 -344 95 -407 119 -133 52 -213 132 -213
213 0 19 20 166 45 328 25 162 59 385 76 495 71 466 136 844 175 1008 23 94
29 109 52 121 34 18 208 67 337 96 55 12 106 27 114 34 16 13 463 245 473 245
4 1 5 -11 2 -26z m1213 -54 c123 -70 218 -135 283 -194 25 -23 65 -53 90 -67
54 -31 147 -126 183 -188 14 -25 38 -88 51 -140 84 -319 244 -1386 263 -1755
5 -108 4 -126 -14 -167 -29 -65 -85 -122 -145 -148 -76 -33 -189 -26 -280 17
-119 56 -264 164 -421 313 l-82 78 22 24 c35 37 44 76 42 175 -1 73 2 97 14
111 22 24 37 68 37 107 0 27 84 261 106 297 7 11 172 -74 316 -163 141 -88
220 -146 260 -191 26 -29 48 -31 48 -3 0 22 -99 104 -239 196 -73 49 -138 90
-143 91 -5 2 -19 143 -32 313 -12 171 -25 316 -30 323 -32 52 -32 -33 -1 -417
8 -102 14 -186 12 -187 -1 -2 -44 18 -94 44 -89 46 -91 47 -143 132 -67 107
-85 127 -127 141 -28 9 -33 14 -27 32 26 82 149 566 146 575 -2 6 -46 42 -99
79 l-95 68 33 6 c19 4 60 10 92 14 42 5 57 11 57 22 0 13 -85 237 -179 471
-11 28 -19 52 -17 52 3 0 53 -28 113 -61z m-413 -481 c7 -165 7 -168 -14 -168
-15 0 -20 6 -20 26 0 18 -6 28 -21 31 -15 4 -19 11 -15 27 3 11 15 68 27 126
24 118 28 135 33 129 2 -2 6 -79 10 -171z m-74 -203 l0 -55 -210 0 -210 0 0
55 0 55 210 0 210 0 0 -55z m-2902 -767 c7 -150 12 -297 12 -325 l0 -53 -179
0 c-105 0 -182 4 -186 10 -3 5 -10 114 -15 242 -5 128 -12 270 -15 316 l-6 82
189 0 189 0 11 -272z m3364 153 c22 -8 138 -179 138 -203 0 -13 -88 -217 -106
-245 -16 -25 -22 -27 -43 -14 -11 7 -11 12 2 32 35 56 28 119 -13 119 -19 0
-20 8 -20 160 0 93 4 160 9 160 5 0 20 -4 33 -9z m-5382 -130 c41 -16 114 -37
162 -46 80 -16 87 -19 83 -39 -3 -11 -19 -79 -35 -151 -48 -206 -49 -214 -60
-530 -10 -309 -24 -447 -91 -899 l-31 -208 84 -127 c47 -69 90 -139 97 -156
15 -33 28 -331 17 -361 -12 -31 -28 1 -57 117 -30 118 -47 151 -66 127 -17
-21 -63 -157 -63 -187 0 -44 70 -253 96 -288 13 -17 24 -35 24 -38 0 -13 -125
7 -152 23 -14 10 -76 62 -138 117 l-111 100 5 45 c3 25 8 99 12 166 7 133 3
183 -56 619 -54 394 -68 521 -76 650 -11 197 25 502 87 741 16 62 36 172 45
245 24 202 13 184 87 144 34 -18 96 -47 137 -64z m2975 -173 c-24 -139 -95
-623 -95 -650 1 -108 111 -205 305 -268 39 -13 74 -27 79 -32 14 -11 -6 -194
-64 -613 -74 -531 -76 -565 -44 -785 l6 -45 -98 -81 c-156 -127 -169 -134
-241 -134 -71 0 -76 7 -38 52 24 28 79 186 91 258 4 25 -3 60 -26 122 -49 134
-56 132 -98 -30 -32 -123 -44 -146 -61 -115 -7 13 -7 71 -2 175 10 180 14 193
116 331 91 123 87 106 64 253 -61 401 -89 671 -99 959 -6 160 -15 334 -21 387
-5 53 -7 131 -3 172 l7 76 114 0 114 0 -6 -32z m2385 -55 c-1 -50 -29 -72
-118 -93 -95 -22 -79 -41 41 -44 46 -2 93 -8 105 -15 31 -16 29 -61 -4 -101
-25 -29 -26 -36 -25 -133 2 -132 -12 -164 -84 -190 -42 -15 -72 -17 -180 -13
-71 3 -158 10 -193 16 -43 7 -88 7 -143 0 -45 -5 -85 -7 -89 -5 -10 6 0 309
10 313 34 14 237 156 283 198 l58 54 77 1 c42 1 111 5 152 9 41 4 83 7 93 8 9
1 17 -1 17 -5z m164 -820 c76 -64 176 -134 277 -196 l26 -16 7 -278 c4 -153
20 -753 36 -1333 37 -1339 37 -1345 25 -1344 -5 1 -173 48 -372 104 l-362 102
-5 42 c-3 22 -10 262 -16 531 -6 270 -13 580 -15 690 -3 110 -12 477 -20 815
-8 338 -16 667 -17 730 l-3 115 125 5 125 5 3 93 3 93 47 -41 c26 -23 87 -75
136 -117z m-2715 -533 l41 -282 -77 -103 c-43 -57 -79 -103 -80 -101 -3 3 2
155 34 911 l7 170 17 -157 c10 -86 36 -283 58 -438z m2023 400 c6 -79 27 -497
53 -1070 3 -63 19 -396 35 -740 16 -344 32 -686 35 -760 3 -74 8 -170 11 -212
l5 -78 -100 -65 c-251 -165 -572 -287 -906 -345 -151 -26 -485 -47 -540 -34
l-39 10 -2 224 c-1 124 -5 855 -8 1625 -4 770 -9 1417 -12 1438 -7 44 5 47 77
22 91 -33 398 -71 934 -119 170 -15 264 -20 273 -13 8 6 12 42 12 114 l0 104
83 -3 82 -3 7 -95z m215 -10 c10 -352 23 -913 23 -1008 l0 -112 -69 0 -70 0
-5 43 c-3 23 -8 105 -11 182 -10 254 -16 377 -30 670 -8 160 -15 300 -15 313
0 22 2 23 87 20 l87 -3 3 -105z m-4292 -965 c263 -44 357 -50 800 -49 383 0
738 16 926 40 l46 6 -4 -53 c-1 -30 -10 -218 -18 -419 -8 -201 -17 -417 -20
-480 -3 -63 -16 -389 -30 -725 -13 -335 -27 -657 -30 -715 -10 -217 -14 -1106
-5 -1175 5 -38 22 -137 37 -219 24 -137 26 -157 15 -230 -13 -88 -86 -312
-156 -480 -25 -60 -46 -114 -46 -121 0 -14 -46 -58 -79 -75 -31 -16 -272 -23
-421 -13 l-114 8 -51 170 c-28 94 -61 196 -73 228 -28 74 -28 123 2 195 47
118 51 150 51 452 -1 157 3 798 7 1425 6 788 5 1172 -2 1245 -17 169 -103 656
-131 748 -22 68 -39 38 -73 -128 -48 -236 -81 -480 -91 -685 -17 -336 -154
-1475 -262 -2180 -41 -265 -40 -252 -23 -485 31 -419 9 -536 -160 -870 l-71
-140 -38 0 c-20 0 -105 11 -189 25 -84 14 -190 25 -236 25 l-84 0 -6 63 c-2
34 -12 139 -20 232 -45 481 -45 628 -3 1030 14 132 35 357 46 500 54 676 58
794 66 1885 2 338 8 674 14 745 5 72 13 171 16 221 l7 90 132 -33 c72 -19 194
-45 271 -58z m4574 -1941 c91 -26 227 -64 301 -85 l135 -38 -297 0 c-163 -1
-299 3 -302 7 -9 15 -19 162 -11 162 4 0 83 -21 174 -46z m-704 -350 c-1 -147
-26 -774 -36 -874 -5 -58 -30 -235 -55 -395 -58 -372 -70 -556 -55 -844 6
-119 15 -234 20 -256 45 -203 64 -386 42 -400 -22 -13 -29 8 -40 128 -6 65
-20 154 -31 199 -30 125 -43 341 -37 606 5 217 9 261 51 527 59 383 74 523 81
805 9 380 19 552 31 572 3 5 11 7 17 5 8 -2 12 -29 12 -73z m-2221 -2523 c132
-146 209 -267 222 -350 6 -37 3 -44 -28 -75 -115 -115 -436 -50 -608 123 -62
62 -300 352 -300 365 0 4 82 3 183 0 213 -7 312 3 366 39 l36 24 30 -25 c17
-13 61 -59 99 -101z m-1849 73 c88 -14 161 -27 163 -29 10 -10 -176 -343 -236
-423 -56 -73 -157 -122 -257 -124 -107 -2 -179 25 -233 87 -58 65 -41 132 68
275 32 41 79 110 105 152 30 51 54 80 68 83 75 16 91 15 322 -21z m4642 -298
c97 -67 194 -115 300 -150 99 -33 149 -65 145 -92 -11 -61 -93 -89 -304 -105
-237 -18 -442 4 -535 57 -49 28 -213 162 -213 173 0 5 33 11 74 15 127 11 299
68 391 129 22 14 45 26 52 26 6 1 47 -23 90 -53z m-587 -192 c87 -77 154 -124
295 -210 100 -61 150 -105 142 -127 -35 -91 -417 -110 -711 -36 -101 26 -157
54 -281 143 -95 67 -255 156 -281 156 -16 0 -89 68 -81 76 3 3 45 1 94 -6 148
-19 336 -14 471 15 65 14 143 34 173 44 30 11 63 20 74 20 11 0 57 -32 105
-75z"/>
<path d="M5110 14291 c-24 -45 -7 -101 31 -101 33 0 41 76 11 103 -24 22 -29
21 -42 -2z"/>
<path d="M5500 14311 c-26 -50 3 -121 41 -100 36 19 18 119 -21 119 -5 0 -14
-9 -20 -19z"/>
<path d="M8774 13655 c-31 -47 3 -146 40 -116 23 19 30 75 14 107 -18 37 -34
40 -54 9z"/>
<path d="M8330 13615 c-13 -39 -6 -88 16 -106 34 -28 67 55 44 111 -17 42 -45
39 -60 -5z"/>
<path d="M8713 13168 c-76 -36 -184 -49 -268 -33 -57 12 -65 10 -65 -11 0 -35
184 -47 281 -18 75 23 149 62 149 79 0 22 -27 17 -97 -17z"/>
<path d="M4789 10236 c-2 -2 -134 -6 -293 -10 -159 -3 -292 -9 -297 -11 -4 -3
-5 -13 -2 -21 6 -16 66 -16 576 2 l167 6 0 -46 c0 -45 -1 -46 -32 -47 -18 -1
-195 -4 -393 -8 -311 -5 -360 -8 -360 -21 0 -13 50 -15 387 -15 212 0 389 -2
392 -5 6 -6 -19 -553 -34 -744 -5 -72 -10 -133 -10 -137 0 -19 -57 -72 -99
-93 -162 -82 -428 -53 -548 60 -38 36 -48 40 -58 24 -17 -28 82 -106 180 -141
77 -27 240 -37 327 -19 71 14 163 57 195 91 34 37 42 69 53 212 13 176 40 730
40 840 l0 87 -93 0 c-52 0 -96 -2 -98 -4z"/>
<path d="M5935 10189 c-11 -16 -12 -940 -2 -1021 15 -117 70 -167 197 -176 90
-6 142 4 138 26 -3 15 -14 17 -85 14 -93 -4 -159 17 -188 62 -30 45 -44 468
-29 832 l7 150 174 -26 c144 -22 176 -24 180 -13 3 8 2 17 -2 21 -3 4 -84 18
-178 32 -161 24 -172 26 -175 47 l-3 23 189 -7 c185 -6 222 -1 189 25 -19 15
-404 26 -412 11z"/>
<path d="M4425 4624 c-99 -47 -213 -101 -252 -119 -45 -21 -73 -40 -73 -49 0
-9 8 -16 17 -16 10 0 103 41 207 91 104 50 218 104 254 120 60 27 77 51 41 56
-8 1 -95 -36 -194 -83z"/>
<path d="M5864 4650 c-122 -49 -234 -116 -396 -238 -54 -40 -88 -73 -88 -84 0
-10 4 -18 10 -18 5 0 56 36 114 79 133 101 278 187 386 227 51 20 86 39 88 48
5 24 -33 20 -114 -14z"/>
<path d="M14450 14815 c-200 -40 -325 -139 -380 -299 -29 -86 -34 -174 -17
-312 14 -109 14 -127 1 -170 -22 -71 -13 -184 21 -265 16 -37 31 -97 36 -144
5 -44 18 -109 29 -144 20 -59 20 -73 10 -200 -19 -249 -20 -256 -44 -271 -144
-93 -413 -248 -536 -310 -259 -131 -346 -202 -472 -391 -89 -131 -145 -245
-192 -391 l-34 -103 -75 235 c-75 232 -75 236 -80 365 -4 95 -12 157 -31 230
-35 132 -134 332 -226 453 l-70 94 29 41 c16 24 34 60 40 82 16 58 14 155 -4
189 -15 28 -14 33 19 102 103 210 107 417 11 589 -126 226 -420 423 -600 401
-179 -21 -496 -150 -698 -283 -89 -59 -178 -141 -216 -201 -59 -93 -73 -225
-32 -317 24 -55 99 -136 157 -170 41 -24 57 -45 34 -45 -6 0 -22 -11 -35 -25
-53 -53 -16 -192 80 -294 49 -52 49 -53 60 -211 10 -140 34 -189 126 -258 41
-30 49 -42 49 -68 0 -27 -7 -36 -43 -57 -23 -14 -67 -51 -97 -83 -53 -56 -56
-58 -250 -129 -107 -40 -239 -86 -292 -104 -54 -18 -106 -40 -117 -49 -11 -9
-43 -80 -72 -157 -81 -220 -287 -731 -333 -830 -24 -49 -70 -137 -104 -193
-34 -57 -62 -108 -62 -113 0 -4 42 -33 93 -63 l93 -55 -34 -103 c-46 -140 -53
-237 -22 -298 31 -60 94 -154 234 -343 64 -87 116 -164 116 -171 0 -7 -18 -92
-39 -187 -244 -1072 -290 -1284 -284 -1290 9 -8 293 -79 317 -79 27 0 33 -32
40 -205 4 -93 9 -197 11 -230 2 -33 7 -114 10 -180 42 -918 53 -1071 175
-2250 27 -264 52 -507 55 -540 4 -33 8 -78 11 -100 2 -22 11 -134 19 -249 l16
-209 -66 -61 c-62 -58 -65 -64 -65 -107 0 -25 -3 -81 -7 -123 l-6 -77 -96 -63
c-53 -35 -157 -96 -231 -136 -216 -116 -260 -153 -260 -216 0 -41 21 -64 87
-97 80 -40 147 -52 288 -51 114 1 149 5 283 37 84 20 156 37 159 37 4 0 -18
-26 -49 -58 -58 -58 -90 -114 -80 -142 21 -66 98 -90 302 -97 319 -11 532 64
752 264 48 43 100 90 116 104 20 16 33 39 37 65 4 22 18 48 31 59 20 17 31 61
84 325 33 168 76 379 96 470 130 607 172 954 154 1266 -15 261 -35 366 -137
719 -11 39 -13 89 -9 225 8 266 40 478 161 1085 41 204 80 413 87 465 14 94
14 95 48 107 19 7 98 35 174 62 77 28 146 56 153 64 14 13 22 -19 -213 865
l-74 282 37 33 c21 17 66 58 100 91 l63 59 52 -49 c29 -27 98 -78 153 -112 55
-34 141 -91 190 -125 88 -61 130 -80 208 -92 l39 -6 -6 -697 c-6 -615 -14
-893 -31 -1122 -3 -36 -25 -310 -50 -610 -24 -300 -45 -578 -47 -619 l-3 -74
60 -33 c87 -49 233 -112 370 -160 l120 -42 13 -143 c7 -79 11 -227 9 -329 l-3
-185 -51 -130 c-83 -210 -86 -271 -23 -415 53 -122 96 -242 125 -350 26 -102
27 -121 9 -215 -4 -25 5 -46 50 -117 31 -48 56 -92 56 -98 0 -6 -13 -34 -30
-63 -34 -60 -37 -94 -15 -182 17 -71 32 -47 -150 -245 -71 -78 -145 -163 -163
-189 -38 -54 -49 -114 -30 -150 37 -69 157 -123 278 -124 93 0 163 16 259 59
94 43 147 87 215 177 85 113 181 201 264 242 87 45 136 98 159 174 9 31 26 88
39 126 40 123 40 153 0 347 -20 97 -36 198 -36 224 0 28 16 102 36 169 51 167
53 272 19 810 -14 231 -27 443 -28 470 l-2 50 35 0 35 0 17 -120 c62 -435 67
-632 24 -1003 -28 -253 -31 -319 -16 -372 6 -19 42 -71 80 -115 46 -52 68 -85
64 -95 -4 -8 -18 -47 -33 -87 l-26 -71 18 -64 c10 -34 31 -113 47 -175 29
-115 66 -196 105 -233 13 -12 57 -30 99 -40 108 -27 165 -54 252 -120 91 -69
226 -137 344 -175 180 -57 360 -40 450 41 67 61 70 131 9 220 -31 46 -150 159
-217 207 -33 24 -42 36 -38 52 8 27 -52 229 -80 270 -18 27 -21 40 -14 69 13
57 -6 122 -77 271 -87 181 -89 206 -39 406 54 216 49 353 -25 677 -27 120 -32
161 -36 333 l-6 196 74 7 c161 16 213 40 207 94 l-3 27 148 3 c107 2 147 6
148 15 8 119 -49 610 -111 946 -44 240 -149 1065 -137 1077 7 7 177 -88 177
-99 0 -28 124 -263 212 -402 94 -148 168 -276 168 -289 0 -3 -58 23 -130 59
-71 36 -137 65 -145 65 -40 0 -2 -27 143 -99 l159 -80 16 -58 c23 -81 36 -258
39 -535 l3 -238 -57 64 c-68 76 -238 216 -261 216 -31 0 -18 -17 57 -74 41
-31 120 -105 177 -164 l104 -108 38 -120 c20 -65 62 -171 93 -234 87 -179 132
-284 148 -346 8 -32 14 -59 12 -61 -1 -1 -24 27 -50 62 -84 115 -245 275 -277
275 -25 0 -2 -31 64 -88 79 -67 154 -153 225 -257 l45 -67 -6 -122 c-8 -154
-27 -326 -38 -326 -4 0 -10 13 -14 29 -3 16 -53 96 -111 177 -143 203 -141
200 -150 191 -12 -11 14 -54 127 -212 138 -194 155 -253 126 -450 l-12 -80
-155 -5 -155 -5 -3 -318 c-2 -269 0 -322 13 -347 31 -61 25 -60 577 -60 541 0
532 0 572 53 20 27 21 42 24 330 2 166 1 311 -3 324 -5 23 -7 23 -155 23 -83
0 -150 2 -150 5 0 3 -29 99 -64 214 -60 198 -63 215 -61 298 4 137 24 198 160
482 69 145 127 271 128 281 6 55 -25 6 -99 -150 -45 -96 -105 -222 -133 -280
-54 -112 -81 -200 -81 -264 0 -53 -11 -39 -35 47 -19 67 -45 101 -45 60 0 -11
45 -169 100 -351 55 -182 100 -334 100 -337 0 -3 -113 -5 -251 -5 l-252 0 7
68 c4 37 19 174 35 306 l27 238 54 65 c30 36 101 103 158 149 92 77 122 114
91 114 -14 0 -114 -86 -216 -187 l-83 -81 0 102 c0 134 -21 206 -119 415 -44
91 -91 195 -105 230 l-26 65 26 95 c14 52 50 152 80 221 56 131 61 150 44 150
-16 0 -87 -158 -130 -288 -21 -63 -40 -110 -43 -105 -2 4 -12 42 -22 83 -21
93 -35 302 -35 526 0 251 -25 358 -122 528 l-40 71 17 50 c9 28 49 114 87 193
65 131 76 164 49 148 -15 -10 -84 -139 -132 -249 -34 -79 -45 -95 -55 -85 -27
28 -158 248 -199 333 -24 50 -57 132 -74 184 l-32 94 21 61 c11 33 20 68 20
78 0 33 -18 19 -36 -29 l-18 -48 -14 48 c-13 45 -24 57 -36 38 -3 -4 9 -61 28
-125 18 -64 31 -116 29 -116 -19 0 -145 75 -154 92 -7 13 -13 98 -15 232 -11
632 -14 733 -19 752 -5 17 2 26 40 49 107 62 230 211 379 457 48 79 116 176
151 217 87 99 109 147 113 243 7 135 -37 337 -162 750 -84 277 -146 501 -252
908 -114 442 -146 522 -219 561 -17 8 -51 36 -77 62 -26 25 -80 68 -120 95
-171 114 -500 298 -668 373 l-85 38 -23 97 -23 98 27 65 c16 42 31 108 40 181
7 63 18 142 24 175 5 33 9 112 8 175 -1 63 0 195 1 293 4 224 -6 284 -63 369
-76 114 -227 212 -373 243 -83 18 -265 18 -353 0z m354 -45 c162 -41 308 -149
364 -267 27 -58 27 -58 27 -290 0 -128 -1 -233 -2 -233 -1 0 -31 15 -65 34
-229 124 -510 175 -710 130 -90 -21 -190 -62 -263 -109 -31 -20 -60 -34 -62
-31 -3 3 0 18 6 34 10 24 9 58 -4 169 -12 111 -14 155 -5 209 29 182 140 300
326 348 126 32 278 34 388 6z m-112 -655 l58 -6 -17 -26 -17 -26 34 8 c82 17
107 12 153 -33 51 -50 62 -52 53 -12 l-6 30 38 -16 c20 -9 49 -20 63 -26 22
-8 28 -17 33 -60 10 -71 31 -108 61 -108 17 0 29 8 37 25 6 13 14 23 18 20 8
-5 -6 -143 -20 -202 -5 -23 -10 -63 -10 -90 0 -75 -26 -178 -61 -243 -72 -135
-273 -274 -397 -273 -106 0 -332 111 -416 204 -82 91 -133 213 -146 349 -5 57
-17 107 -36 150 -28 66 -39 160 -19 166 6 2 18 -15 27 -37 14 -33 21 -40 40
-37 18 2 27 15 42 63 29 93 38 107 84 126 l43 19 -20 -29 c-12 -16 -21 -34
-21 -40 0 -16 37 -13 43 3 11 29 60 51 111 51 38 0 51 4 51 15 0 8 -11 17 -25
21 -32 8 -12 17 50 22 46 4 71 3 172 -8z m-2698 -228 c9 -24 52 -101 96 -172
53 -85 83 -145 91 -181 7 -30 9 -57 6 -60 -3 -4 -26 -9 -50 -11 l-44 -5 -8 38
c-8 46 -36 103 -62 126 -30 27 -105 58 -144 58 -79 0 -156 -45 -190 -111 -14
-28 -25 -39 -35 -35 -9 3 -24 6 -34 6 -12 0 -20 10 -24 34 -9 45 -57 110 -95
127 -17 8 -31 16 -31 20 0 4 484 206 501 208 4 1 14 -19 23 -42z m-505 -224
c91 -69 101 -186 22 -264 -68 -68 -164 -72 -233 -10 -30 26 -32 34 -37 115 -4
47 -4 94 0 103 3 9 38 33 79 53 81 41 117 41 169 3z m448 -34 c38 -14 83 -57
99 -96 54 -126 -55 -262 -193 -240 -108 18 -174 146 -125 243 46 89 133 126
219 93z m-754 -171 c31 -98 44 -178 29 -178 -21 0 -91 123 -106 184 -8 31 15
76 38 76 8 0 24 -34 39 -82z m461 36 c9 -3 16 -18 16 -31 0 -114 104 -214 221
-213 37 0 113 31 142 58 11 9 30 38 43 63 20 41 28 47 65 53 33 5 44 3 54 -11
13 -17 15 -17 47 2 81 48 154 85 170 85 23 0 31 -35 26 -120 -3 -57 -9 -77
-34 -112 -35 -51 -93 -92 -152 -109 -49 -13 -47 -12 -127 -164 -67 -129 -74
-137 -142 -181 -163 -105 -378 -115 -539 -23 -68 38 -141 117 -149 160 -8 48
-35 392 -30 397 2 2 15 -4 30 -14 40 -26 102 -34 157 -19 44 11 48 11 48 -5 0
-41 108 -109 133 -84 11 11 -5 34 -24 34 -11 0 -37 16 -58 36 l-38 37 38 38
c25 25 44 56 51 84 12 44 21 51 52 39z m2616 -233 c16 -31 13 -136 -5 -151
-13 -11 -15 -8 -15 17 0 17 -3 58 -6 92 -7 63 4 81 26 42z m-61 -173 c-1 -126
2 -163 13 -168 7 -4 69 -10 138 -14 69 -4 159 -9 200 -11 456 -30 579 -32 581
-12 4 37 -2 174 -12 255 -10 88 -7 134 5 81 94 -411 147 -697 135 -721 -23
-44 -234 -158 -368 -198 -139 -43 -331 -13 -600 92 -57 22 -117 53 -134 68
-28 25 -32 34 -35 99 -2 39 3 122 12 184 20 144 46 405 46 469 0 32 4 47 10
43 7 -4 10 -65 9 -167z m881 85 c0 -24 -7 -27 -34 -17 -21 8 -20 23 1 46 19
21 33 9 33 -29z m-575 -75 c93 -45 115 -52 183 -56 87 -5 146 13 244 72 l56
33 6 -41 c3 -22 8 -76 12 -118 l6 -78 -46 0 c-55 0 -511 27 -603 36 l-63 6 0
52 c0 29 3 87 6 129 l7 76 43 -30 c24 -16 91 -53 149 -81z m580 -10 c2 -13 6
-58 7 -102 3 -69 1 -79 -15 -82 -23 -3 -25 3 -35 114 -8 91 -8 92 15 92 15 0
24 -7 28 -22z m410 -165 c276 -149 482 -281 547 -350 40 -43 71 -111 76 -167
7 -84 -76 -419 -189 -763 l-50 -152 33 -431 34 -431 -24 -15 c-22 -15 -24 -21
-20 -86 l4 -69 -179 -91 c-230 -117 -318 -174 -340 -221 -20 -42 -21 -118 -2
-172 8 -21 13 -41 11 -42 -8 -9 -191 -43 -237 -44 -53 -2 -57 0 -183 87 -75
52 -179 136 -248 202 -65 61 -124 113 -131 113 -56 7 -84 6 -101 -3 -10 -6
-62 -51 -114 -100 -106 -99 -167 -139 -260 -168 -66 -21 -117 -18 -288 13 -78
14 -75 8 -53 114 10 50 10 73 0 119 -19 83 -66 125 -215 194 l-119 55 8 476 7
475 -121 360 c-66 197 -130 397 -141 443 l-21 85 28 40 c53 76 182 167 375
267 156 80 411 227 512 294 l29 19 -7 -64 c-3 -36 -14 -112 -22 -169 -18 -117
-15 -232 6 -276 20 -40 59 -64 185 -114 240 -94 462 -131 591 -97 133 35 306
121 385 193 35 31 39 41 39 82 0 36 -49 299 -97 514 l-6 28 79 -36 c43 -20
142 -70 219 -112z m-1235 82 c0 -30 -4 -55 -10 -55 -11 0 -14 93 -3 103 12 12
13 8 13 -48z m-2108 -358 c-3 -76 -9 -140 -14 -143 -5 -3 -21 9 -36 27 -15 17
-44 49 -64 70 l-37 37 8 76 c8 68 12 79 43 108 19 18 48 57 64 87 l29 55 6
-90 c3 -49 3 -151 1 -227z m-189 -14 c-17 -183 -19 -188 -79 -290 -82 -138
-350 -507 -384 -528 -16 -10 -37 51 -49 138 -12 83 -15 663 -5 739 l6 45 52
-20 c64 -24 211 -34 286 -18 30 7 80 22 110 35 30 13 60 24 65 25 7 1 7 -40
-2 -126z m-539 -758 c39 -138 68 -140 169 -12 175 222 361 498 378 562 20 73
19 72 35 43 26 -50 33 -118 20 -203 -11 -75 -16 -87 -85 -189 -167 -248 -461
-619 -512 -647 -26 -13 -53 8 -68 55 -35 106 -43 206 -48 588 l-5 386 43 47
44 48 6 -309 c5 -247 9 -321 23 -369z m4781 500 c14 -37 62 -207 106 -378 83
-324 172 -644 264 -952 29 -99 68 -234 85 -300 17 -66 34 -129 37 -140 5 -19
4 -19 -18 2 -30 28 -97 56 -115 49 -24 -9 -15 -25 24 -41 91 -39 144 -132 145
-256 1 -95 -25 -152 -115 -256 -35 -39 -87 -111 -117 -160 -193 -314 -308
-451 -431 -513 -122 -62 -260 -49 -355 33 l-38 33 21 30 c70 96 69 339 -3 411
-43 43 -84 49 -177 25 l-77 -20 -15 39 c-23 57 -21 130 5 163 26 33 117 87
338 201 l176 90 0 74 0 74 35 12 c19 7 124 32 233 56 184 40 219 54 188 74 -5
3 -74 -8 -152 -25 -79 -16 -145 -28 -146 -26 -6 5 166 120 225 151 50 26 69
55 37 55 -36 0 -167 -78 -304 -182 -35 -26 -67 -48 -70 -48 -4 0 -17 134 -30
298 -12 163 -24 322 -27 352 -15 172 -12 195 48 380 119 369 184 644 175 742
-5 54 -4 58 9 39 8 -11 26 -50 39 -86z m-5025 90 c0 -3 -13 -31 -29 -63 -43
-86 -76 -185 -105 -312 -27 -122 -56 -323 -56 -393 -1 -39 -4 -44 -45 -69 -82
-50 -143 -175 -181 -376 -15 -81 -16 -117 -8 -291 10 -197 10 -199 39 -241 16
-24 53 -61 82 -84 28 -23 52 -44 52 -48 2 -15 -70 -37 -99 -31 -45 8 -78 -4
-95 -37 -21 -40 -19 -54 11 -89 44 -53 104 -38 142 34 6 11 37 30 69 43 l59
22 62 -33 c35 -19 71 -47 84 -67 39 -58 118 -57 142 2 29 67 -18 124 -92 114
-38 -5 -87 8 -111 30 -3 2 14 20 35 38 53 45 99 133 118 226 8 41 20 152 26
247 10 148 9 185 -5 265 -24 140 -81 250 -147 284 l-31 16 7 86 c16 192 64
411 123 562 47 120 48 116 49 -253 1 -268 4 -363 17 -437 28 -166 62 -230 120
-230 37 0 107 69 238 235 105 132 314 417 322 437 2 7 7 11 10 8 10 -9 -35
-205 -49 -213 -27 -15 -36 -46 -24 -80 10 -27 6 -61 -24 -217 -20 -101 -39
-209 -43 -238 -6 -53 -7 -54 -52 -74 -96 -40 -145 -115 -145 -218 0 -137 94
-230 231 -230 160 1 268 148 221 302 -14 48 -77 121 -119 138 -31 13 -31 13
-24 69 7 58 62 352 71 384 5 16 12 18 52 12 276 -42 454 31 551 225 21 43 47
113 56 156 10 44 20 86 22 94 3 8 14 -14 25 -50 11 -36 63 -197 115 -359 52
-162 110 -342 128 -400 18 -58 70 -219 114 -358 45 -138 81 -254 81 -257 0
-12 -156 -110 -233 -147 -104 -49 -177 -63 -292 -55 -126 9 -225 27 -225 40
-1 28 -31 281 -44 366 -8 52 -24 187 -36 300 -13 113 -26 209 -31 215 -6 5
-13 5 -21 -3 -13 -13 -7 -80 38 -439 l25 -202 -21 -141 c-11 -77 -19 -144 -16
-148 2 -4 68 -246 145 -537 77 -292 190 -718 250 -947 61 -229 111 -423 111
-430 0 -15 -243 -108 -410 -157 -362 -105 -767 -155 -1069 -132 -83 6 -218 20
-299 32 -282 39 -802 151 -802 173 0 6 50 235 112 509 96 425 114 496 128 492
15 -5 321 132 342 153 5 5 8 33 6 63 -3 51 -4 54 -29 52 -15 -1 -87 -24 -160
-52 -74 -27 -134 -49 -135 -48 -1 1 29 137 66 302 l69 300 -15 170 c-19 225
-31 330 -49 445 -8 52 -15 114 -15 136 0 23 25 181 55 352 30 171 55 318 55
327 0 10 -7 15 -17 13 -19 -3 -24 -26 -99 -458 -36 -210 -37 -218 -26 -320 7
-58 15 -115 18 -127 9 -32 -15 -30 -132 12 -74 26 -293 136 -323 161 -2 2 24
50 57 106 34 57 79 141 100 188 42 90 287 703 342 855 18 50 41 98 52 107 11
10 70 33 131 53 62 19 175 60 252 89 146 57 155 59 155 51z m1984 -222 c9 -32
69 -213 133 -403 l117 -345 2 -170 c1 -168 -16 -559 -31 -685 l-8 -65 -29 35
c-16 19 -45 68 -66 108 -31 61 -40 72 -58 68 -23 -6 -13 -35 -230 648 l-95
299 17 71 c23 95 70 227 106 301 39 78 111 195 120 195 3 0 14 -26 22 -57z
m-2037 -706 c19 -21 41 -63 54 -104 20 -61 22 -86 20 -248 -2 -198 -20 -354
-49 -418 -19 -42 -111 -137 -133 -137 -20 0 -137 100 -161 138 -22 35 -22 45
-23 267 0 210 2 237 23 308 29 101 63 167 104 203 28 24 41 29 83 27 43 -1 54
-6 82 -36z m845 -350 c105 -58 130 -201 51 -288 -48 -54 -84 -70 -148 -70 -59
0 -97 15 -137 58 -57 60 -72 137 -39 208 51 109 169 149 273 92z m-1546 -375
l132 -46 5 -40 c3 -22 3 -77 0 -121 -4 -56 -1 -98 10 -140 30 -119 30 -142 -3
-284 -17 -74 -32 -136 -34 -138 -7 -7 -253 334 -315 437 -31 51 -33 58 -28
125 2 39 19 114 36 168 27 83 35 97 49 91 9 -4 76 -28 148 -52z m2833 -138
c19 -36 57 -91 85 -122 43 -47 70 -65 176 -115 150 -70 186 -97 211 -151 23
-51 24 -93 3 -168 -18 -62 -18 -62 -78 -48 -75 17 -162 -54 -192 -156 -29 -99
-3 -175 83 -240 l42 -32 -24 -22 c-50 -47 -189 -59 -272 -25 -20 9 -87 50
-147 93 -61 43 -151 102 -199 132 -48 30 -102 69 -119 87 l-31 32 106 113
c247 265 298 343 296 463 0 39 -6 93 -13 120 -11 46 -10 52 9 77 11 15 22 27
25 27 3 1 20 -29 39 -65z m-114 -31 c4 -10 9 -56 12 -103 5 -78 3 -90 -20
-136 -29 -57 -86 -128 -237 -298 -94 -105 -324 -326 -339 -326 -4 0 -24 67
-45 149 l-38 149 89 138 c119 184 111 168 100 225 -5 27 -8 51 -6 53 2 2 38 6
80 10 109 9 217 50 344 130 48 30 51 31 60 9z m-765 -60 c0 -42 13 -48 130
-64 52 -7 98 -15 102 -18 4 -4 10 -31 13 -61 l6 -55 -81 -124 c-44 -68 -83
-121 -85 -119 -3 2 -29 94 -59 205 -42 158 -53 211 -49 248 6 52 23 43 23 -12z
m-1534 -88 c9 -23 -15 -55 -41 -55 -45 0 -55 68 -13 83 17 6 48 -10 54 -28z
m418 -1 c21 -20 20 -30 -4 -54 -25 -25 -32 -25 -55 0 -38 42 19 94 59 54z
m3431 -339 c44 -54 143 -134 283 -229 108 -73 115 -76 170 -76 59 0 160 19
346 65 130 32 163 26 193 -33 26 -52 26 -227 0 -294 l-19 -48 -131 -41 c-282
-87 -356 -114 -467 -169 -123 -61 -244 -104 -325 -114 l-50 -6 44 19 c65 27
101 78 69 98 -7 4 -107 10 -223 14 -206 6 -289 19 -267 41 5 5 83 16 173 23
259 22 346 47 364 106 8 25 -10 56 -44 74 -25 12 -49 13 -153 5 -68 -5 -159
-14 -203 -20 -112 -15 -220 -13 -253 4 l-27 15 36 15 c20 8 110 36 200 61 202
57 290 89 323 120 59 55 15 190 -97 298 -59 57 -61 60 -65 119 l-5 61 47 -33
c26 -19 62 -53 81 -75z m-169 54 c-10 -61 -31 -96 -108 -178 -39 -40 -77 -89
-85 -109 -31 -75 -12 -161 44 -197 l28 -18 -118 -38 c-65 -20 -126 -44 -136
-53 -27 -25 -15 -52 33 -76 57 -27 215 -27 436 0 l164 21 20 -21 c19 -18 19
-21 4 -36 -24 -24 -192 -52 -358 -60 -142 -7 -145 -8 -168 -35 -13 -16 -19
-34 -16 -43 9 -23 55 -45 109 -53 25 -3 48 -9 51 -14 2 -5 79 -5 171 -2 140 5
165 4 161 -8 -10 -29 -79 -41 -243 -42 -140 -1 -168 1 -220 20 -65 23 -99 19
-70 -10 9 -9 34 -21 55 -27 22 -6 42 -15 45 -21 4 -5 26 -19 49 -30 23 -11 58
-33 77 -49 l34 -29 -35 0 c-42 -1 -124 36 -171 76 -19 16 -79 60 -134 98 -55
37 -152 110 -215 161 -231 188 -260 210 -333 256 -101 64 -123 113 -97 210 12
43 51 93 91 117 26 16 35 15 166 -11 347 -70 432 -51 639 142 59 55 114 100
122 100 11 0 13 -9 8 -41z m168 -266 c33 -67 34 -117 3 -138 -39 -25 -185 -75
-220 -75 -75 0 -134 71 -118 142 10 44 34 78 96 138 25 25 55 59 66 77 l19 31
64 -61 c35 -34 75 -85 90 -114z m-3904 -206 c0 -21 -18 -32 -131 -85 -72 -34
-135 -62 -140 -62 -5 0 -9 15 -9 34 0 38 -13 31 200 111 81 30 80 30 80 2z
m2870 -134 c14 -9 88 -70 165 -134 165 -137 430 -330 517 -376 76 -41 160 -47
178 -12 9 16 8 26 -5 45 -8 13 -20 24 -25 24 -6 0 -10 4 -10 9 0 4 69 11 153
14 186 6 272 29 447 117 116 59 253 109 452 165 l97 27 43 -36 c23 -20 67 -49
98 -64 48 -24 66 -27 145 -26 50 1 99 3 110 5 18 4 21 -4 28 -66 10 -88 -12
-3047 -23 -3058 -4 -5 -25 -13 -46 -18 -48 -11 -356 -28 -519 -29 -70 0 -170
-8 -240 -20 -319 -52 -770 -67 -1022 -35 -246 32 -515 113 -760 230 l-132 63
5 74 c3 40 19 228 35 418 83 980 80 927 89 1805 4 446 8 811 9 813 0 1 13 2
29 2 35 1 102 31 126 59 23 25 25 26 56 4z m-2319 -1694 c-2 -129 -5 -252 -6
-274 -1 -22 -6 -229 -10 -460 -9 -482 -6 -537 60 -1020 78 -572 83 -637 83
-985 -1 -453 -22 -651 -88 -804 l-42 -99 3 -151 c3 -129 2 -151 -11 -151 -19
0 -29 64 -32 210 -2 110 -2 110 41 210 55 125 68 215 80 550 16 406 -2 687
-78 1220 -62 434 -64 471 -58 1020 7 500 22 948 33 966 3 6 11 8 17 6 9 -3 11
-67 8 -238z m4789 -29 c21 -199 63 -482 115 -780 36 -203 74 -506 81 -652 l7
-123 -128 3 -128 3 6 592 c4 326 7 734 8 907 1 184 4 303 9 285 5 -16 18 -122
30 -235z m-5289 -3845 c123 -53 220 -76 347 -82 61 -3 112 -9 112 -12 0 -13
-168 -196 -216 -237 -46 -37 -61 -43 -214 -79 -276 -64 -296 -67 -415 -62 -78
3 -130 11 -178 28 -65 21 -127 64 -127 88 0 26 86 86 275 191 113 63 230 134
258 157 29 23 57 42 64 42 6 1 48 -15 94 -34z m741 -154 c220 -69 307 -91 361
-91 35 0 37 -2 37 -31 0 -34 -5 -40 -153 -169 -225 -196 -403 -257 -717 -247
-162 5 -240 22 -263 59 -17 26 34 89 142 175 118 94 233 205 313 301 37 46 66
71 74 68 8 -3 101 -32 206 -65z m4530 -49 c40 -32 103 -91 140 -130 114 -122
113 -186 -7 -247 -55 -28 -65 -30 -174 -30 -105 1 -126 4 -214 34 -108 37
-236 107 -332 181 -56 42 -155 90 -187 90 -8 0 -8 3 -2 8 8 8 82 31 204 63 36
9 440 82 487 88 6 0 45 -25 85 -57z m-1879 38 c62 -10 166 -56 260 -116 l58
-36 -85 -84 c-46 -46 -106 -112 -133 -146 -65 -85 -85 -102 -178 -148 -152
-77 -295 -87 -410 -29 -153 77 -141 107 183 456 86 93 98 102 136 106 81 7
112 7 169 -3z"/>
<path d="M14825 13966 c-29 -44 4 -106 40 -76 27 23 14 100 -17 100 -4 0 -15
-11 -23 -24z"/>
<path d="M14384 13967 c-3 -8 -4 -30 -2 -49 2 -28 7 -33 28 -33 23 0 25 4 25
45 0 39 -3 45 -23 48 -13 2 -24 -3 -28 -11z"/>
<path d="M14686 13952 c-7 -11 72 -236 85 -240 15 -6 10 -38 -9 -55 -10 -9
-35 -23 -56 -32 -34 -15 -42 -15 -93 0 -55 16 -103 41 -103 54 0 3 10 11 22
16 19 9 25 25 41 119 12 75 15 112 7 120 -17 17 -27 -5 -43 -101 -13 -79 -20
-97 -44 -117 -27 -24 -27 -26 -13 -53 22 -42 111 -83 177 -83 64 0 99 16 142
65 36 41 38 51 12 79 -10 12 -33 64 -51 116 -19 52 -38 101 -43 108 -11 14
-24 16 -31 4z"/>
<path d="M14785 13513 c-40 -9 -100 -12 -177 -9 -96 3 -118 2 -118 -10 0 -21
46 -29 170 -28 123 1 200 16 200 39 0 21 -10 22 -75 8z"/>
<path d="M11320 13543 c-43 -22 -49 -59 -10 -56 14 1 38 5 53 9 18 4 51 0 88
-11 43 -13 63 -15 71 -7 47 47 -127 104 -202 65z"/>
<path d="M11825 13524 c-49 -12 -75 -27 -75 -45 0 -27 14 -31 64 -18 61 15
109 5 151 -33 29 -25 38 -28 50 -18 8 7 15 18 15 24 0 14 -46 59 -75 74 -25
12 -103 22 -130 16z"/>
<path d="M11470 13185 c0 -9 22 -26 53 -40 80 -38 226 -33 282 9 14 11 17 18
9 26 -7 7 -23 6 -55 -6 -66 -25 -164 -23 -220 4 -54 26 -69 27 -69 7z"/>
<path d="M14170 12803 c0 -6 57 -16 128 -23 70 -6 138 -14 152 -16 14 -3 126
-7 250 -11 232 -6 455 7 475 29 7 7 -3 9 -35 4 -208 -32 -612 -23 -922 20 -30
4 -48 3 -48 -3z"/>
<path d="M14146 12651 c15 -15 132 -47 239 -67 148 -26 449 -24 605 4 139 26
192 40 186 51 -3 4 -38 -1 -78 -11 -256 -65 -614 -62 -852 7 -93 27 -116 31
-100 16z"/>
<path d="M15110 12483 c-19 -8 -87 -29 -150 -45 -223 -57 -484 -48 -688 24
-86 30 -118 32 -64 4 55 -28 198 -64 303 -77 117 -13 263 -7 385 16 80 15 236
63 271 84 17 10 17 10 -2 10 -11 0 -36 -8 -55 -16z"/>
<path d="M11635 9738 c-3 -13 -6 -41 -8 -62 l-2 -40 350 -92 c193 -50 356 -89
363 -86 16 6 42 55 42 81 0 15 -12 23 -52 35 -241 69 -666 186 -676 186 -6 0
-14 -10 -17 -22z m363 -113 c355 -99 345 -95 333 -114 -8 -12 -62 -1 -328 68
-175 45 -323 84 -330 86 -13 4 -6 45 9 45 5 0 147 -38 316 -85z"/>
<path d="M11836 11150 c-78 -24 -119 -117 -81 -190 36 -69 109 -95 177 -61 53
25 78 65 78 124 0 53 -34 101 -87 123 -36 16 -46 16 -87 4z m84 -45 c16 -8 34
-24 40 -34 15 -28 12 -83 -5 -107 -19 -28 -69 -48 -101 -40 -88 22 -100 140
-19 184 28 16 51 15 85 -3z"/>
<path d="M17796 10802 c-3 -5 -8 -46 -12 -90 -4 -45 -10 -82 -13 -82 -3 0 -23
31 -44 70 -40 74 -52 87 -62 70 -4 -6 18 -55 49 -109 l55 -99 -15 -114 c-20
-155 -40 -253 -80 -385 -46 -154 -223 -594 -238 -594 -4 0 -42 58 -85 128 -80
134 -155 243 -225 328 -49 60 -58 67 -70 55 -6 -6 0 -20 16 -37 71 -77 243
-332 322 -478 l27 -51 -35 -97 c-20 -53 -48 -143 -63 -200 -26 -95 -28 -116
-27 -292 0 -198 1 -201 73 -620 44 -248 55 -376 49 -567 -3 -91 -9 -171 -12
-177 -4 -6 -41 56 -82 137 -112 220 -304 500 -304 442 0 -5 46 -78 103 -163
62 -91 138 -222 187 -322 l84 -169 -22 -105 c-12 -58 -44 -187 -72 -286 -148
-519 -154 -594 -75 -929 19 -82 37 -151 40 -154 3 -3 10 -1 15 4 6 6 4 31 -6
69 -9 33 -26 107 -38 165 l-22 105 37 87 c93 214 204 392 345 555 54 61 65 83
41 83 -15 0 -113 -115 -195 -230 -64 -91 -164 -269 -203 -362 -13 -32 -27 -58
-31 -58 -12 0 -9 97 7 200 14 97 34 177 124 500 53 190 94 389 106 519 6 63
14 86 52 150 97 164 198 301 335 453 43 47 78 89 78 92 0 64 -292 -278 -409
-479 l-46 -79 -2 59 c-5 131 -26 294 -75 580 -49 287 -51 308 -52 495 -1 137
3 201 11 216 7 12 106 90 220 174 249 183 230 167 216 181 -8 8 -58 -24 -184
-117 -96 -70 -187 -139 -203 -151 -16 -13 -30 -22 -33 -20 -8 9 97 308 167
472 128 302 199 510 230 670 6 33 13 67 16 75 2 9 62 60 134 114 114 87 152
126 121 126 -5 0 -59 -39 -121 -86 -61 -47 -114 -84 -116 -81 -3 3 2 65 10
138 27 241 29 266 18 273 -6 3 -13 2 -16 -2z"/>
<path d="M1870 8068 c0 -8 11 -52 25 -99 13 -46 25 -87 25 -92 0 -4 -27 6 -60
23 -33 16 -64 30 -71 30 -27 0 3 -28 71 -65 40 -22 77 -47 81 -55 5 -8 29 -58
53 -110 25 -52 86 -160 136 -240 100 -158 134 -219 127 -227 -3 -2 -50 19
-106 46 -55 28 -107 51 -116 51 -39 0 -4 -25 120 -87 149 -74 144 -69 164
-188 6 -33 11 -150 12 -260 1 -110 5 -226 8 -257 4 -32 5 -58 3 -58 -2 0 -24
23 -49 50 -52 58 -201 180 -220 180 -26 0 -12 -19 51 -69 35 -28 101 -90 147
-139 79 -83 86 -93 113 -178 16 -49 66 -170 111 -269 116 -254 135 -318 69
-229 -78 104 -224 241 -244 229 -7 -4 30 -47 88 -104 54 -53 122 -129 150
-170 46 -66 52 -81 52 -125 0 -61 -26 -316 -33 -323 -3 -2 -8 6 -13 19 -11 38
-205 308 -220 308 -8 0 -14 -3 -14 -7 0 -7 67 -105 156 -230 77 -107 88 -166
66 -338 l-17 -130 -155 -3 c-108 -2 -156 -6 -162 -15 -12 -18 -10 -586 2 -629
6 -20 24 -48 41 -62 l31 -26 510 0 c460 0 513 2 538 17 60 35 61 46 58 393
l-3 315 -169 5 -169 5 -19 55 c-10 30 -42 131 -70 225 -48 161 -50 174 -45
252 7 104 31 170 151 420 93 195 107 233 86 233 -11 0 -92 -166 -142 -290 -16
-41 -43 -95 -58 -120 -31 -49 -60 -138 -60 -182 0 -45 -17 -32 -30 22 -13 53
-26 71 -36 47 -5 -15 35 -159 136 -486 27 -90 50 -167 50 -172 0 -5 -104 -9
-230 -9 l-230 0 5 23 c6 26 50 387 61 495 6 67 10 78 51 128 24 29 82 86 129
125 82 68 103 93 91 106 -7 7 -100 -69 -189 -156 l-68 -65 0 74 c0 111 -22
183 -109 368 -110 232 -109 230 -78 339 14 49 44 131 67 182 39 89 48 129 25
113 -15 -10 -78 -152 -105 -237 -13 -38 -27 -74 -31 -78 -4 -5 -15 24 -24 65
-13 53 -19 148 -25 353 -9 320 -14 346 -91 501 l-50 100 36 85 c20 46 54 117
75 156 26 48 35 75 28 79 -18 12 -64 -66 -123 -206 -15 -36 -30 -69 -35 -73
-8 -10 -120 163 -173 269 -19 38 -49 111 -66 162 l-31 92 20 50 c11 28 20 57
20 65 0 28 -21 15 -37 -22 l-15 -38 -12 34 c-11 35 -36 54 -36 29z"/>
</g>
</svg>
